<svg t="1770262358593" class="icon" viewBox="0 0 1024 1024" version="1.1" xmlns="http://www.w3.org/2000/svg" p-id="16266" width="26" height="26"><path d="M482 1024V714.726l-133.946-133.936c-45.764-45.774-112.42-54.922-166.054-31.508V392c0-82.914-69.07-150-152-150H0v434.61l242 240V1024zM60 651.61V307.118C95.672 319.6 122 353.438 122 392v205.92l-5.04 6.306 168.986 168.984 42.42-42.42L203.18 605.6c32.6-15.618 74.116-10.72 102.452 17.608L422 739.586V964h-120v-72.39z m0 0M842 392v157.28c-53.594-23.398-120.196-14.35-166.054 31.51L542 714.726V1024h240v-107.39l242-240V242h-30c-82.914 0-152 67.07-152 150z m122 259.61l-242 240V964h-120V739.586l116.368-116.376c28.218-28.21 69.672-33.312 102.452-17.608l-125.188 125.188 42.422 42.42 168.992-168.984-5.046-6.304V392c0-38.562 26.328-72.4 62-84.882z m0 0" p-id="16267" fill="#124D99"></path><path d="M782 272C782 122.016 660.874 0 512 0S242 122.016 242 272c0 148.876 121.126 270 270 270s270-121.126 270-270z m-305.546 159.172c-4.664-12.438-8.696-26.172-12.08-40.876a666.052 666.052 0 0 0 95.25-0.006c-3.38 14.71-7.414 28.444-12.078 40.88C531.992 472.666 516.282 482 512 482s-19.992-9.336-35.546-50.828zM302 272c0-4.28 9.336-19.992 50.828-35.546 12.446-4.672 26.18-8.696 40.89-12.08a661.468 661.468 0 0 0-0.008 95.25c-14.71-3.38-28.444-7.406-40.88-12.078C311.334 291.992 302 276.282 302 272z m150 0c0-19.43 0.954-38.696 2.758-57.304 18.42-1.766 37.61-2.696 57.242-2.696s38.82 0.93 57.242 2.696A595.906 595.906 0 0 1 572 272c0 19.648-0.93 38.86-2.704 57.296C550.86 331.07 531.648 332 512 332s-38.86-0.93-57.296-2.704A600.01 600.01 0 0 1 452 272z m60-212c5.328 0 21.024 12.64 35.508 51.72 4.688 12.64 8.758 26.788 12.18 41.99C544.1 152.594 528.156 152 512 152s-32.1 0.594-47.688 1.71c3.422-15.202 7.492-29.35 12.18-41.992C490.976 72.64 506.672 60 512 60z m210 212c0 4.28-9.336 19.992-50.828 35.546-12.438 4.672-26.172 8.696-40.882 12.08a661.468 661.468 0 0 0-0.008-95.25c14.71 3.38 28.444 7.406 40.89 12.078C712.664 252.008 722 267.718 722 272z m-122.516 190.89c1.438-3.42 2.852-6.944 4.242-10.648 7.79-20.758 14.064-44.344 18.72-69.796 25.452-4.656 49.03-10.93 69.788-18.712a285.25 285.25 0 0 0 10.648-4.25c-20.976 45.586-57.812 82.422-103.398 103.406zM703.368 184.72a286.88 286.88 0 0 0-11.126-4.444c-20.758-7.78-44.336-14.064-69.78-18.712-5.494-30.32-13.338-58.468-23.486-82.5 46.172 21.29 83.414 58.978 104.392 105.656zM425.024 79.054c-10.15 24.04-17.992 52.188-23.484 82.508-25.446 4.648-49.024 10.922-69.782 18.712a305.646 305.646 0 0 0-11.126 4.436c20.978-46.67 58.22-84.36 104.392-105.656z m-103.906 280.43a290.4 290.4 0 0 0 10.64 4.242c20.758 7.79 44.344 14.064 69.796 18.72 4.656 25.452 10.93 49.03 18.72 69.788a272.52 272.52 0 0 0 4.24 10.648c-45.584-20.976-82.42-57.812-103.396-103.398z m0 0" p-id="16268" fill="#124D99"></path></svg>