<svg t="1770262541325" class="icon" viewBox="0 0 1054 1024" version="1.1" xmlns="http://www.w3.org/2000/svg" p-id="29572" width="35" height="35"><path d="M514.014854 1023.838022a39.370179 39.370179 0 0 1-28.082226-11.26501 37.672397 37.672397 0 0 1-7.754732-43.155773 304.797685 304.797685 0 0 0-64.974561-346.301562 323.152081 323.152081 0 0 0-225.575524-91.037803 330.379124 330.379124 0 0 0-131.69279 27.233334 40.723816 40.723816 0 0 1-44.532353-7.502359 37.672397 37.672397 0 0 1-7.754732-43.155773 396.707322 396.707322 0 0 1 81.332916-114.53143 401.846553 401.846553 0 0 1 281.808805-113.544881h17.413733a561.460967 561.460967 0 0 1 280.822255-240.236097A587.340665 587.340665 0 0 1 878.028408 0.006883a560.979164 560.979164 0 0 1 131.669847 15.004718 38.131257 38.131257 0 0 1 29.045831 28.151055 536.866077 536.866077 0 0 1-151.102563 515.230832 556.597052 556.597052 0 0 1-123.892172 91.037804 386.337088 386.337088 0 0 1-234.316805 369.749303 24.82432 24.82432 0 0 1-15.509464 4.588598zM185.677656 455.127069a400.2176 400.2176 0 0 1 281.739976 113.544881 385.855285 385.855285 0 0 1 111.342353 207.404672 363.669409 363.669409 0 0 1 1.950154 121.024298c3.854423-2.821988 6.882898-6.584639 10.64555-9.314856a305.14183 305.14183 0 0 0 91.978466-254.460755 37.00705 37.00705 0 0 1 22.277648-38.452459 472.350375 472.350375 0 0 0 126.828875-89.156477 461.016536 461.016536 0 0 0 134.537721-419.466773 468.817154 468.817154 0 0 0-89.064706-7.502359 490.452398 490.452398 0 0 0-343.686061 138.047999 496.096375 496.096375 0 0 0-91.978466 122.928566 40.104355 40.104355 0 0 1-39.714324 20.648695 457.185056 457.185056 0 0 0-35.676356-1.881326 318.907627 318.907627 0 0 0-225.575524 91.037804 94.433366 94.433366 0 0 0-9.613115 10.324347 253.153004 253.153004 0 0 1 54.214296-4.588599h-0.137658z m-53.227747 513.280678a360.365618 360.365618 0 0 1-36.892336-1.881325 40.494386 40.494386 0 0 1-33.795031-32.831426c-0.963606-5.621034-20.327493-147.385798 79.382762-244.939411 47.42317-45.885989 87.18338-66.718229 126.828874-66.718229a142.475997 142.475997 0 0 1 97.737158 48.79975 138.392144 138.392144 0 0 1 50.33693 91.037803c1.950155 39.416065-20.327493 79.772793-68.828984 127.631879a309.982802 309.982802 0 0 1-214.929974 78.83213z m135.547212-269.304872c-9.613115 0-31.041872 5.621034-70.664423 44.119379a192.973529 192.973529 0 0 0-55.063188 116.366869 203.917337 203.917337 0 0 0-2.890817 31.913706 232.114278 232.114278 0 0 0 152.960946-56.302109c40.425557-39.416065 46.413678-60.890708 45.3583-69.448445a77.019633 77.019633 0 0 0-27.04979-39.439008c-20.327493-20.648695-31.936649-27.210392-42.628085-27.210392z m500.524373-319.045284a116.366869 116.366869 0 1 1 120.037749-116.36687 118.225252 118.225252 0 0 1-120.014806 116.36687z m0-154.819329a39.278407 39.278407 0 0 0-39.668438 38.544231 39.897868 39.897868 0 0 0 39.691381 38.475402 39.30135 39.30135 0 0 0 39.714324-38.475402 38.658946 38.658946 0 0 0-38.796604-38.475402h-0.780062z" p-id="29573" fill="#124D99"></path></svg>