<svg t="1770271196824" class="icon" viewBox="0 0 1024 1024" version="1.1" xmlns="http://www.w3.org/2000/svg" p-id="53570" width="20" height="20"><path d="M289.3 651.9h43.2c0.8 0 1.5 0.7 1.5 1.5v137.8c0 0.8 0.7 1.5 1.5 1.5h17.9c0.8 0 1.5-0.7 1.5-1.5V653.4c0-0.8 0.7-1.5 1.5-1.5h43.4c0.8 0 1.5-0.7 1.5-1.5v-15.3c0-0.8-0.7-1.5-1.5-1.5H289.3c-0.8 0-1.5 0.7-1.5 1.5v15.3c0 0.9 0.7 1.5 1.5 1.5z m223.9-285.4L702 555.4c0.6 0.6 1.5 0.6 2.1 0l8.7-8.7c0.6-0.6 0.6-1.5 0-2.1L515.3 347l-2.1-2.1c-0.6-0.6-1.5-0.6-2.1 0L509 347 311.4 544.6c-0.6 0.6-0.6 1.5 0 2.1l8.7 8.7c0.6 0.6 1.5 0.6 2.1 0L511 366.5c0.6-0.6 1.6-0.6 2.2 0z m139.3-94H371.7c-0.8 0-1.5 0.7-1.5 1.5v12c0 0.8 0.7 1.5 1.5 1.5h280.8c0.8 0 1.5-0.7 1.5-1.5v-12c0-0.8-0.7-1.5-1.5-1.5zM514.7 631c-24 0-43.1 7.6-57.1 22.8-14.1 15.2-21.1 35.6-21.1 61.3 0 23.8 6.9 43.2 20.7 58 13.8 14.9 32.1 22.3 54.9 22.3 23.4 0 42.1-7.6 56.1-22.7s21-35.6 21-61.4c0-23.8-6.8-43.2-20.5-58-13.7-14.9-31.7-22.3-54-22.3z m37.8 129.4c-9.8 11.1-23.3 16.7-40.4 16.7-16 0-29-5.8-38.9-17.4-9.9-11.6-14.9-27-14.9-46.3 0-19.1 5.1-34.5 15.3-46.3 10.2-11.8 23.5-17.7 39.9-17.7 16.7 0 29.8 5.6 39.4 16.7 9.6 11.2 14.4 27 14.4 47.5-0.1 20.2-5 35.7-14.8 46.8zM504.8 63.5c-242 3.6-437.6 199.1-441.2 441.2-3.7 252.1 202.7 458.6 454.8 454.8 242.1-3.6 437.6-199.2 441.2-441.2 3.8-252.1-202.7-458.6-454.8-454.8z m-15.2 880.6C267.9 933 90.2 755.2 79.1 533.5 66 272 272.1 65.8 533.6 78.9 755.3 90 933.1 267.8 944.2 489.5 957.3 751 751.1 957.2 489.6 944.1z m231.7-298c-9.6-8.3-23.1-12.4-40.4-12.4h-44.2c-0.8 0-1.5 0.7-1.5 1.5v156.1c0 0.8 0.7 1.5 1.5 1.5h17.8c0.8 0 1.5-0.7 1.5-1.5v-56.5c0-0.8 0.7-1.5 1.5-1.5h19.4c16.8 0.5 30.8-4 42.1-13.7 11.2-9.7 16.8-22.3 16.8-37.9-0.1-15.5-4.9-27.3-14.5-35.6zM704 706.7c-6.6 5.6-16.2 8.5-28.9 8.5h-17.7c-0.8 0-1.5-0.7-1.5-1.5v-60.5c0-0.8 0.7-1.5 1.5-1.5h19.7c24.5 0 36.8 10.2 36.8 30.7 0 10.6-3.3 18.7-9.9 24.3z" fill="#2c2c2c" p-id="53571"></path></svg>