<svg t="1770262484958" class="icon" viewBox="0 0 1024 1024" version="1.1" xmlns="http://www.w3.org/2000/svg" p-id="22820" width="35" height="35"><path d="M780.49792 345.24672000000004c1.67936 1.65376 3.70688 2.74944 5.8368 3.57376l0.04608 0.03072c0.04096 0.01024 0.0768 0.01024 0.11264 0.03072 1.32096 0.49152 2.6624 0.83968 4.06016 0.9984 0.70144 0.09216 1.38752 0.09216 2.08896 0.1024 0.70144-0.00512 1.39264-0.00512 2.09408-0.1024 1.40288-0.15872 2.7392-0.50688 4.06016-1.00352 0.03584-0.01024 0.07168-0.01024 0.10752-0.0256 0.01536-0.00512 0.03072-0.0256 0.0512-0.03072 2.1248-0.82432 4.15232-1.90976 5.84192-3.57376l101.34528-99.52768a16.36352 16.36352 0 0 0 0-23.45984 17.08032 17.08032 0 0 0-23.8848 0l-72.51456 71.21408V66.77504c0-9.17504-7.56736-16.59392-16.896-16.59392-0.07168 0-0.13312 0.04096-0.2048 0.04096s-0.13312-0.04096-0.19968-0.04096c-9.32864 0-16.896 7.41376-16.896 16.59392v226.69824L703.03232 222.25920000000002a17.08032 17.08032 0 0 0-23.8848 0 16.36352 16.36352 0 0 0 0 23.45984l101.3504 99.52768zM425.74848 346.7878400000001c-8.01792-6.95296-25.96864-5.67808-33.01888 2.39104-6.92736 7.85408-7.90016 19.49184-2.41152 28.288l2.64704 3.92704 109.39392 106.81344v25.00096l-105.58464 0.77824-2.2016 0.35328c-9.86112 3.19488-16.4864 12.27776-16.4864 22.58944s6.62016 19.39456 16.55808 22.58944l2.88768 0.896 104.66304 0.2816v42.74176l-105.58464 0.78336-2.03264 0.35328a23.5008 23.5008 0 0 0-16.55808 22.58944 23.66464 23.66464 0 0 0 16.4608 22.63552l2.7904 0.9216 104.85248 0.3072 0.07168 102.86592 1.2288 3.712a23.61344 23.61344 0 0 0 22.47168 16.29696 23.64416 23.64416 0 0 0 22.58944-16.55808l0.896-2.88768 0.2816-103.48032 105.55904-0.77824 2.12992-0.37888a23.7056 23.7056 0 0 0 16.512-22.66112 23.71072 23.71072 0 0 0-23.70048-23.70048h-100.16256v-42.81344l105.56416-0.84992 2.1504-0.35328a23.78752 23.78752 0 0 0 16.4864-22.6816 23.71072 23.71072 0 0 0-23.70048-23.70048h-100.50048v-24.05376l86.02112-85.19168a242.54464 242.54464 0 0 1-31.95392-34.42176l-77.43488 76.34944-100.88448-98.95424z" p-id="22821" fill="#124D99"></path><path d="M929.32096 464.39424c-3.90144 0.18944-7.74144 0.5888-11.68896 0.5888h-36.74624c4.42368 23.0656 6.9376 46.8224 6.9376 71.17824 0 207.54944-168.2688 375.808-375.82848 375.808s-375.81824-168.25856-375.81824-375.82848c0-207.54944 168.25856-375.808 375.81824-375.808 15.41632 0 30.52544 1.21344 45.45536 3.01568a240.36352 240.36352 0 0 1 12.05248-46.6944c-18.85184-2.56-37.94944-4.34688-57.50272-4.34688-234.0864 0-423.85408 189.7728-423.85408 423.85408S277.91872 959.9999999999998 512 959.9999999999998s423.85408-189.75232 423.85408-423.83872c-0.00512-24.51456-2.53952-48.38912-6.53312-71.76704z" p-id="22822" fill="#124D99"></path></svg>