<svg t="1770262579891" class="icon" viewBox="0 0 1024 1024" version="1.1" xmlns="http://www.w3.org/2000/svg" p-id="31708" width="35" height="35"><path d="M880.8064 772.5952c-40.704 108.3264-145.2544 185.408-267.8016 185.408H473.984a27.008 27.008 0 0 1-27.008-27.008v-73.984a27.008 27.008 0 0 1 27.008-27.008h139.008A27.008 27.008 0 0 1 640 857.0112v33.1136c75.8144-13.824 139.0848-63.5776 171.5456-130.9696a99.9424 99.9424 0 0 1-47.552-85.1584v-125.9904A100.0448 100.0448 0 0 1 832 453.2352v-2.7392c0-176.9984-143.488-320.4992-320.512-320.4992-176.9984 0-320.4864 143.488-320.4864 320.512v2.3936a100.0448 100.0448 0 0 1 68.992 95.104v125.9904a100.0064 100.0064 0 0 1-200 0v-125.9904a100.0448 100.0448 0 0 1 67.008-94.4384v-3.072c0-212.352 172.1472-384.4992 384.4992-384.4992C723.84 65.9968 896 238.1568 896 450.5088v2.7264a100.0448 100.0448 0 0 1 68.0064 94.7712v125.9904a100.032 100.032 0 0 1-83.2 98.5984zM864 512a36.0064 36.0064 0 0 0-36.0064 36.0064v125.9904a36.0064 36.0064 0 0 0 72.0128 0v-125.9904A36.0064 36.0064 0 0 0 864 512z m-704 0a36.0064 36.0064 0 0 0-36.0064 36.0064v125.9904a36.0064 36.0064 0 0 0 72.0128 0v-125.9904A36.0064 36.0064 0 0 0 160 512z" fill="#124D99" p-id="31709"></path></svg>