<svg t="1773371917371" class="icon" viewBox="0 0 1024 1024" version="1.1" xmlns="http://www.w3.org/2000/svg" p-id="12957" width="20" height="20"><path d="M508.8 799.6c-37 0-73.6-11.6-105.9-33.5-13.6-9.2-17.2-27.7-7.9-41.4 9.3-13.6 27.8-17.2 41.4-7.9 44.3 30 96.9 30.8 141.6 2.2 13.8-8.8 32.3-4.8 41.2 9 8.9 13.9 4.8 32.3-9 41.2-31.3 19.9-66.3 30.4-101.4 30.4z" fill="#124D99" opacity=".8" p-id="12958"></path><path d="M509.6 891.8c-48.1 0-94.2-10.6-136.8-31.4-14.8-7.2-20.9-25.1-13.7-39.8 7.2-14.8 25.1-20.9 39.8-13.7 34.4 16.8 71.6 25.3 110.6 25.3 37.1 0 72.6-7.7 105.6-23 15-6.9 32.7-0.4 39.5 14.6 6.9 15 0.4 32.6-14.6 39.5-40.8 18.9-84.7 28.5-130.4 28.5z" fill="#124D99" opacity=".8" p-id="12959"></path><path d="M509.1 685.3c-29.6 0-53.6-24-53.6-53.6v-445.8c0-29.6 24-53.6 53.6-53.6s53.6 24 53.6 53.6v445.8c0 29.6-24 53.6-53.6 53.6z" fill="#124D99" opacity=".8" p-id="12960"></path><path d="M664.6 397.7c-14.2 0-28.4-5.6-38.9-16.7L475.5 222.8c-20.4-21.5-19.5-55.4 2-75.8s55.4-19.5 75.8 2l150.2 158.2c20.4 21.5 19.5 55.4-2 75.8-10.4 9.8-23.7 14.7-36.9 14.7z" fill="#124D99" opacity=".8" p-id="12961"></path><path d="M359.4 397.7c-13.3 0-26.5-4.9-36.9-14.7-21.5-20.4-22.4-54.3-2-75.8L470.6 149c20.4-21.5 54.3-22.4 75.8-2s22.4 54.3 2 75.8L398.3 381c-10.5 11.1-24.7 16.7-38.9 16.7z" fill="#124D99" opacity=".8" p-id="12962"></path></svg>