<svg t="1773309265769" class="icon" viewBox="0 0 1024 1024" version="1.1" xmlns="http://www.w3.org/2000/svg" p-id="29874" width="30" height="30"><path d="M551.317333 286.805333l-1.28 2.176a42.666667 42.666667 0 0 1-74.410666 2.944l-1.664-2.944a21.333333 21.333333 0 0 0-24.704-10.88 234.304 234.304 0 0 0-97.024 54.293334 21.333333 21.333333 0 0 0-4.608 25.066666 42.666667 42.666667 0 0 1-35.114667 61.376l-3.925333 0.106667a21.333333 21.333333 0 0 0-20.501334 14.933333 235.626667 235.626667 0 0 0-5.973333 117.653334 21.333333 21.333333 0 0 0 22.976 16.96 42.666667 42.666667 0 0 1 39.168 66.986666l-2.282667 2.986667a21.333333 21.333333 0 0 0 0.917334 28.522667 234.602667 234.602667 0 0 0 102.058666 62.250666 21.333333 21.333333 0 0 0 25.514667-11.669333l0.874667-2.282667a42.688 42.688 0 0 1 80.149333-3.221333l1.173333 3.2a21.333333 21.333333 0 0 0 26.389334 13.973333 234.602667 234.602667 0 0 0 102.058666-62.250666 21.333333 21.333333 0 0 0 2.538667-26.368l-1.621333-2.176a42.666667 42.666667 0 0 1 36.885333-69.952 21.333333 21.333333 0 0 0 22.997333-16.96 235.626667 235.626667 0 0 0-5.973333-117.632 21.333333 21.333333 0 0 0-20.522667-14.933334h-0.896a42.645333 42.645333 0 0 1-38.144-61.504 21.333333 21.333333 0 0 0-4.608-25.066666 234.304 234.304 0 0 0-97.024-54.293334 21.333333 21.333333 0 0 0-23.424 8.704z m24.042667 39.978667l2.474667-2.922667a192 192 0 0 1 53.248 29.802667l1.066666 0.874667-1.173333 5.013333c-1.066667 5.461333-1.642667 11.072-1.642667 16.725333l0.106667 4.266667a85.376 85.376 0 0 0 68.544 79.445333l0.874667 0.128 0.64 2.602667c2.986667 13.525333 4.501333 27.434667 4.501333 41.557333l-0.149333 7.872a194.112 194.112 0 0 1-0.469334 7.786667l-0.682666 6.506667-0.64 0.106666a85.333333 85.333333 0 0 0-72.725334 84.394667l0.149334 5.077333c0.597333 10.112 2.965333 19.882667 6.912 28.949334l1.834666 3.946666-4.650666 3.989334a191.957333 191.957333 0 0 1-45.226667 27.605333l-4.458667 1.813333-2.133333-3.242666A85.333333 85.333333 0 0 0 512 642.944l-4.48 0.128a85.333333 85.333333 0 0 0-65.28 36.010667l-2.154667 3.242666-4.458666-1.813333a191.957333 191.957333 0 0 1-45.205334-27.605333l-4.672-3.989334 1.856-3.946666c4.608-10.581333 7.061333-22.122667 7.061334-34.026667l-0.106667-4.266667a85.376 85.376 0 0 0-68.394667-79.402666l-4.885333-0.832-0.64-6.506667a194.901333 194.901333 0 0 1-0.64-15.658667l0.192-8.448c0.469333-11.221333 1.92-22.293333 4.309333-33.109333l0.64-2.624 0.789334-0.106667a85.333333 85.333333 0 0 0 68.736-83.712l-0.192-5.632a85.376 85.376 0 0 0-1.450667-11.093333l-1.194667-5.013333 1.088-0.874667a192.170667 192.170667 0 0 1 53.226667-29.802667l2.496 2.922667a85.248 85.248 0 0 0 63.36 28.16 85.248 85.248 0 0 0 63.36-28.16z" fill="#124D99" p-id="29875"></path><path d="M512 408.277333a96 96 0 1 0 0 192 96 96 0 0 0 0-192z m0 42.666667a53.333333 53.333333 0 1 1 0 106.666667 53.333333 53.333333 0 0 1 0-106.666667z" fill="#124D99" p-id="29876"></path><path d="M512 85.333333c235.648 0 426.666667 191.018667 426.666667 426.666667s-191.018667 426.666667-426.666667 426.666667S85.333333 747.648 85.333333 512a21.333333 21.333333 0 0 1 42.666667 0c0 212.074667 171.925333 384 384 384s384-171.925333 384-384S724.074667 128 512 128a383.573333 383.573333 0 0 0-320.597333 172.544 21.333333 21.333333 0 1 1-35.584-23.530667A426.24 426.24 0 0 1 512 85.333333z" fill="#124D99" p-id="29877"></path><path d="M298.666667 277.333333a21.333333 21.333333 0 0 1 2.496 42.517334L298.666667 320H170.666667a21.333333 21.333333 0 0 1-2.496-42.517333L170.666667 277.333333h128z" fill="#124D99" p-id="29878"></path><path d="M170.666667 149.333333a21.333333 21.333333 0 0 1 21.184 18.837334L192 170.666667v128a21.333333 21.333333 0 0 1-42.517333 2.496L149.333333 298.666667V170.666667a21.333333 21.333333 0 0 1 21.333334-21.333334z" fill="#124D99" p-id="29879"></path></svg>