<svg t="1773308744952" class="icon" viewBox="0 0 1024 1024" version="1.1" xmlns="http://www.w3.org/2000/svg" p-id="12592" width="25" height="25"><path d="M688.863127 131.348514l186.441273 0c11.652388 0 19.421328 11.652388 19.421328 23.304775l0 0 0 718.575846c0 11.652388-7.767917 19.421328-19.421328 19.421328l0 0L688.863127 892.650463l0-42.726104L851.998601 849.924359 851.998601 333.326645 688.863127 333.326645l0-31.073716L851.998601 302.252929 851.998601 174.074617 719.936843 174.074617l0 34.958186c0 11.652388-7.767917 23.304775-19.421328 23.304775-3.88447 0-7.767917 0-11.652388-3.88447L688.863127 131.348514 688.863127 131.348514zM688.863127 783.89348l3.88447 0c31.073716 0 62.147432-11.652388 81.567737-34.958186 23.304775-23.304775 34.958186-50.494021 34.958186-85.452207s-11.652388-62.147432-31.073716-81.567737c-15.536858-19.421328-42.726104-31.073716-73.79982-31.073716-7.767917 0-11.652388 0-15.536858 0l0 38.841633 3.88447 0c19.421328 0 38.841633 7.767917 50.494021 23.304775 11.652388 11.652388 19.421328 27.189246 19.421328 54.378491 0 23.304775-7.767917 42.726104-19.421328 58.262962-15.536858 11.652388-31.073716 19.421328-50.494021 19.421328l-3.88447 0L688.863127 783.89348 688.863127 783.89348zM688.863127 453.737038c11.652388-3.88447 23.304775-7.767917 34.958186-7.767917 23.304775 0 42.726104 3.88447 62.147432 15.536858l0-42.726104c-15.536858-7.767917-34.958186-11.652388-62.147432-11.652388-11.652388 0-23.304775 0-34.958186 3.88447L688.863127 453.737038zM335.400886 131.348514 688.863127 131.348514l0 97.104595c-7.767917-3.88447-11.652388-7.767917-11.652388-19.421328l0-34.958186L533.49557 174.073594l0 34.958186c0 11.652388-7.767917 23.304775-19.421328 23.304775-11.652388 0-23.304775-11.652388-23.304775-23.304775l0-34.958186L350.937744 174.073594l0 34.958186c0 11.652388-7.767917 15.536858-15.536858 19.421328L335.400886 131.348514 335.400886 131.348514zM688.863127 892.650463 335.400886 892.650463l0-42.726104 159.252027 0L494.652913 333.326645 335.400886 333.326645l0-31.073716L688.863127 302.252929l0 31.073716L533.49557 333.326645l0 516.597715L688.863127 849.924359 688.863127 892.650463 688.863127 892.650463zM688.863127 411.010935c-31.073716 7.767917-54.378491 27.189246-77.68429 54.378491-27.189246 38.841633-38.841633 89.336678-38.841633 155.367557 0 50.494021 7.767917 93.220125 31.073716 120.410394 19.421328 27.189246 50.494021 42.726104 85.452207 42.726104L688.863127 745.051847c-19.421328 0-34.958186-7.767917-46.610574-23.304775-15.536858-19.421328-19.421328-38.841633-19.421328-62.147432 0-19.421328 3.88447-34.958186 19.421328-46.610574 11.652388-15.536858 27.189246-23.304775 46.610574-23.304775l0-38.841633c-31.073716 3.88447-54.378491 23.304775-69.915349 50.494021l0 0c0-46.610574 7.767917-85.452207 27.189246-112.641453 11.652388-15.536858 27.189246-27.189246 42.726104-34.958186L688.863127 411.010935 688.863127 411.010935zM335.400886 780.00901l120.410394 0 0-42.726104L350.937744 737.282906 350.937744 407.126464l-15.536858 3.88447L335.400886 780.00901zM152.844084 131.348514l182.556802 0 0 97.104595c0 3.88447-3.88447 3.88447-7.767917 3.88447-11.652388 0-19.421328-11.652388-19.421328-23.304775l0-34.958186L176.149882 174.074617l0 128.178311 159.252027 0 0 31.073716L176.149882 333.326645l0 516.597715 159.252027 0 0 42.726104L152.844084 892.650463c-11.652388 0-23.304775-7.767917-23.304775-19.421328l0-718.575846C129.539308 143.001925 141.191696 131.348514 152.844084 131.348514L152.844084 131.348514zM335.400886 411.010935l-116.525923 31.073716 0 46.610574 85.452207-27.189246 0 275.777951-81.567737 0 0 42.726104 112.641453 0L335.400886 411.010935z" fill="#124D99" p-id="12593"></path></svg>