<svg t="1773309455258" class="icon" viewBox="0 0 1024 1024" version="1.1" xmlns="http://www.w3.org/2000/svg" p-id="46793" width="30" height="30"><path d="M887.674 898.372H136.644c-40.078 0-72.68-32.602-72.68-72.68v-290.72c0-3.762 0.876-7.476 2.556-10.836l193.814-387.628a24.234 24.234 0 0 1 21.672-13.39h605.668c40.078 0 72.68 32.602 72.68 72.68v629.896c0 40.076-32.602 72.678-72.68 72.678zM112.418 540.696v284.996c0 13.368 10.86 24.226 24.226 24.226h751.03c13.368 0 24.226-10.86 24.226-24.226V195.796c0-13.368-10.86-24.226-24.226-24.226H296.982L112.418 540.696z" fill="#124D99" p-id="46794"></path><path d="M814.994 534.972H233.552a24.23 24.23 0 0 1-20.914-11.996 24.236 24.236 0 0 1-0.212-24.084l135.992-242.268a24.23 24.23 0 0 1 21.128-12.374h407.17c36.222 0 62.506 20.986 62.506 49.874v216.622c-0.002 13.39-10.836 24.226-24.228 24.226z m-540.062-48.454h515.836V295.66c-2.154-1.278-7.264-2.958-14.054-2.958H383.716l-108.784 193.816zM790.768 726.23h-145.36c-26.71 0-48.454-21.742-48.454-48.454v-43.344c0-26.71 21.742-48.454 48.454-48.454h145.36c26.71 0 48.454 21.742 48.454 48.454v43.344c-0.002 26.712-21.744 48.454-48.454 48.454z m0-48.454v24.226-24.226z m-145.362-43.342v43.344h145.29l0.07-43.344h-145.36z" fill="#124D99" p-id="46795"></path></svg>