<svg t="1773309169220" class="icon" viewBox="0 0 1024 1024" version="1.1" xmlns="http://www.w3.org/2000/svg" p-id="19353" width="30" height="30"><path d="M780.608 1024H258.624A132.736 132.736 0 0 1 128 889.28V466.368c0-36.416 14.336-71.296 39.936-97.152l210.048-208.192A128.192 128.192 0 0 1 468.48 123.52h312.128a132.736 132.736 0 0 1 130.56 134.592v631.232A132.736 132.736 0 0 1 780.672 1024zM468.48 194.688a56.96 56.96 0 0 0-40.32 16.896L218.24 419.84c-12.16 12.48-19.008 29.184-18.944 46.592v422.912a61.632 61.632 0 0 0 59.392 63.488h521.984a61.632 61.632 0 0 0 59.392-63.488V258.048a61.504 61.504 0 0 0-59.392-63.36H468.48z m50.688 613.312a167.616 167.616 0 0 1-170.432-167.168c0-101.248 68.48-176.768 118.464-231.872 8.96-9.792 17.408-19.2 24.64-28.48a35.84 35.84 0 0 1 53.824-0.832l12.672 14.208c52.672 58.112 132.16 145.728 132.16 251.904 0 106.24-86.144 162.24-171.328 162.24z m0-351.36c-44.544 49.024-99.648 109.952-99.648 183.424a96 96 0 0 0 99.648 96.704c37.184 0 99.712-19.2 99.712-91.392s-55.232-139.456-99.392-188.672h-0.32z m310.144-385.408H615.744A35.584 35.584 0 0 1 615.68 0h213.568a35.584 35.584 0 0 1 0 71.232z" fill="#124D99" p-id="19354"></path></svg>