<svg t="1773309124722" class="icon" viewBox="0 0 1024 1024" version="1.1" xmlns="http://www.w3.org/2000/svg" p-id="17358" width="30" height="30"><path d="M732.9 685c-46.8 0-85-38.1-85-84.9 0-46.8 38.1-85 85-85 46.8 0 85 38.1 85 85-0.1 46.8-38.1 84.9-85 84.9m0-143c-32.1 0-58.2 26.1-58.2 58.2 0 32 26.1 58.1 58.2 58.1 32 0 58.2-26.1 58.2-58.1-0.1-32.1-26.2-58.2-58.2-58.2M292.8 685c-46.8 0-85-38.1-85-84.9 0-46.8 38.1-85 85-85 46.8 0 85 38.1 85 85 0 46.8-38.1 84.9-85 84.9m0-143c-32.1 0-58.2 26.1-58.2 58.2 0 32 26.1 58.1 58.2 58.1 32 0 58.1-26.1 58.1-58.1 0-32.1-26.1-58.2-58.1-58.2m-137.5 88c-31.6 0-57.4-25.8-57.4-57.4v-110c0-31.6 25.8-57.4 57.7-57.4l7.3 0.2-1-4 8.3-5.2c14.2-8.8 29.9-17.5 46.7-26l-5.5-9.5c-6.7-11.6-2.7-26.5 8.9-33.3 5.7-3.2 12.2-4.2 18.6-2.5 6.3 1.7 11.6 5.8 14.8 11.4l7.7 13.3c39.2-16.5 86.8-32.6 113.9-32.6h154.1c67.6 0 220.7 63.1 242 113.5 35.4 8.4 156.5 40.8 156.5 86.9v55c0 31.6-25.8 57.4-57.4 57.4H825V603h45.5c16.9 0 30.6-13.7 30.6-30.6v-55c-0.2-10.6-50.9-42.2-143.5-62.6l-10.5-3.6v-10.8c-1.3-23.5-143.3-96.6-217.7-96.6H375.3c-20.8 0-66.7 14.1-114.2 35.1l-19.8 9.1c-17.5 8.3-33.9 17.1-48.8 25.9l4.8 19-42.2-0.9c-16.9 0-30.6 13.7-30.6 30.6v110c0 16.9 13.7 30.6 30.6 30.6h45.4V630h-45.2m485.6-26.8V630h-256v-26.8h256" p-id="17359" fill="#124D99"></path></svg>