<svg t="1773309495290" class="icon" viewBox="0 0 1024 1024" version="1.1" xmlns="http://www.w3.org/2000/svg" p-id="49906" width="30" height="30"><path d="M868.864 291.328H808.96V167.424c0-27.136-18.944-49.152-41.984-49.152H253.952c-23.04 0-41.984 22.016-41.984 49.152v123.904h-59.904V157.184c0-51.712 38.912-93.696 86.528-93.696h543.744c47.616 0 86.528 41.984 86.528 93.696v134.144z" fill="#124D99" p-id="49907"></path><path d="M862.208 891.904h-69.632c-50.688 0-91.648-43.008-91.648-95.744v-1.024H320v1.024c0 52.736-41.472 95.744-91.648 95.744H158.72c-50.688 0-91.648-43.008-91.648-95.744V364.032c0-52.736 36.352-95.744 86.528-95.744h64.512c79.36 0 101.888 43.008 101.888 95.744v174.08l380.416-0.512 0.512-173.568c0-52.736 31.744-95.232 97.28-95.232h74.752c50.688 0 81.408 43.008 81.408 95.744v432.128c-0.512 52.224-41.472 95.232-92.16 95.232zM266.752 738.816h486.912v35.84c0 25.088 18.944 45.568 42.496 45.568h62.464c23.552 0 42.496-20.48 42.496-45.568V386.048c0-25.088-18.944-45.568-42.496-45.568H796.16c-23.552 0-42.496 20.48-42.496 45.568l-0.512 211.456-486.4 0.512V386.048c0-25.088-18.944-45.568-42.496-45.568h-62.464c-23.552 0-42.496 20.48-42.496 45.568v388.608c0 25.088 18.944 45.568 42.496 45.568h62.464c23.552 0 42.496-20.48 42.496-45.568v-35.84z" fill="#124D99" p-id="49908"></path></svg>