<svg t="1773309379032" class="icon" viewBox="0 0 1024 1024" version="1.1" xmlns="http://www.w3.org/2000/svg" p-id="39739" width="30" height="30"><path d="M512 0c283.648 0 512 228.352 512 512s-228.352 512-512 512S0 795.648 0 512 228.352 0 512 0z m13.312 121.856c62.464 3.072 121.856 19.456 172.032 46.08l43.008-72.704c-62.464-35.84-135.168-56.32-215.04-59.392v86.016z m240.64-13.312L722.944 184.32c49.152 29.696 92.16 72.704 121.856 121.856l72.704-39.936c-35.84-64.512-88.064-117.76-151.552-157.696z m168.96 182.272l-75.776 43.008c26.624 49.152 43.008 105.472 43.008 164.864h86.016c-4.096-75.776-23.552-145.408-53.248-207.872z m53.248 237.568h-86.016c-3.072 59.392-19.456 115.712-46.08 164.864l75.776 43.008c32.768-62.464 52.224-132.096 56.32-207.872z m-72.704 234.496c-35.84-23.552-69.632-39.936-105.472-62.464 32.768-56.32 53.248-118.784 53.248-188.416C862.208 317.44 706.56 161.792 512 161.792S161.792 317.44 161.792 512c0 69.632 19.456 132.096 53.248 188.416-35.84 23.552-69.632 43.008-105.472 62.464 81.92 135.168 233.472 225.28 402.432 225.28 172.032 0 320.512-90.112 403.456-225.28zM92.16 740.352l75.776-43.008c-26.624-49.152-43.008-108.544-46.08-168.96H35.84C39.936 604.16 59.392 676.864 92.16 740.352zM35.84 498.688h86.016c0-59.392 16.384-115.712 43.008-164.864L92.16 290.816c-32.768 62.464-52.224 132.096-56.32 207.872z m69.632-234.496l72.704 43.008c32.768-49.152 72.704-92.16 125.952-125.952l-43.008-72.704c-62.464 39.936-115.712 93.184-155.648 155.648zM283.648 96.256l43.008 72.704c53.248-26.624 108.544-43.008 172.032-46.08V35.84c-78.848 4.096-151.552 23.552-215.04 60.416z" fill="#124D99" p-id="39740"></path><path d="M706.56 339.968L684.032 317.44 541.696 458.752c-10.24-6.144-19.456-10.24-29.696-10.24-32.768 0-62.464 29.696-62.464 62.464 0 10.24 3.072 19.456 6.144 29.696L396.288 604.16l23.552 23.552 62.464-62.464c6.144 6.144 19.456 10.24 29.696 10.24 32.768 0 62.464-29.696 62.464-62.464 0-10.24-3.072-23.552-10.24-29.696l142.336-143.36zM512 541.696c-16.384 0-29.696-13.312-29.696-29.696s13.312-29.696 29.696-29.696 29.696 13.312 29.696 29.696-13.312 29.696-29.696 29.696zM697.344 776.192H326.656c-23.552 0-39.936 16.384-39.936 39.936v35.84c0 23.552 16.384 39.936 39.936 39.936H696.32c23.552 0 39.936-16.384 39.936-39.936v-35.84c0-23.552-16.384-39.936-38.912-39.936z m0 75.776H326.656v-35.84H696.32l1.024 35.84z" fill="#124D99" p-id="39741"></path></svg>