<svg t="1773309347192" class="icon" viewBox="0 0 1024 1024" version="1.1" xmlns="http://www.w3.org/2000/svg" p-id="37707" width="30" height="30"><path d="M788.736 866.901333a45.340444 45.340444 0 0 1-33.564444-33.365333 44.032 44.032 0 0 1 14.307555-44.003556c67.925333-65.564444 106.154667-154.851556 106.183111-248.035555 0-195.811556-162.759111-354.702222-363.719111-354.702222S148.195556 345.685333 148.195556 541.496889c0.056889 93.184 38.286222 182.471111 106.296888 248.120889 17.891556 17.578667 17.891556 46.08 0 63.630222-8.561778 8.448-20.195556 13.198222-32.312888 13.198222a46.08 46.08 0 0 1-32.284445-13.141333C59.790222 726.926222 21.020444 536.177778 91.875556 370.773333c70.769778-165.262222 236.885333-272.156444 420.067555-270.535111 249.912889 0 453.205333 196.864 455.168 441.287111-0.056889 117.191111-48.128 229.461333-133.461333 311.808a46.193778 46.193778 0 0 1-44.942222 13.568z" fill="#124D99" p-id="37708"></path><path d="M102.599111 616.476444c-17.379556 0-31.488-13.283556-31.488-29.696 0-16.384 14.108444-29.667556 31.488-29.667555h62.976c17.408 0 31.516444 13.283556 31.516445 29.667555 0 16.412444-14.108444 29.696-31.516445 29.696H102.599111z m755.825778 0c-17.408 0-31.516444-13.283556-31.516445-29.696 0-16.384 14.108444-29.667556 31.516445-29.667555h62.976c17.379556 0 31.488 13.283556 31.488 29.667555 0 16.412444-14.108444 29.696-31.488 29.696h-62.976zM206.193778 311.096889c-7.964444-7.509333-11.093333-18.488889-8.163556-28.785778 2.929778-10.268444 11.434667-18.289778 22.357334-21.048889 10.922667-2.759111 22.556444 0.170667 30.549333 7.68L282.424889 298.666667c12.344889 11.662222 12.344889 30.520889 0 42.154666a32.995556 32.995556 0 0 1-44.714667 0L206.222222 311.096889z m535.381333 504.490667a28.586667 28.586667 0 0 1 0-42.126223 32.995556 32.995556 0 0 1 44.714667 0l31.488 29.667556c7.992889 7.537778 11.093333 18.488889 8.192 28.785778a30.776889 30.776889 0 0 1-22.357334 21.048889 32.967111 32.967111 0 0 1-30.549333-7.68l-31.488-29.696z m31.488-546.616889a32.995556 32.995556 0 0 1 44.714667 0c12.344889 11.633778 12.344889 30.492444 0 42.126222l-31.488 29.696c-7.964444 7.509333-19.626667 10.467556-30.549334 7.68a30.776889 30.776889 0 0 1-22.357333-21.048889 28.643556 28.643556 0 0 1 8.192-28.785778l31.488-29.667555zM237.710222 773.461333a32.995556 32.995556 0 0 1 44.714667 0c12.344889 11.633778 12.344889 30.492444 0 42.126223l-31.488 29.696a32.995556 32.995556 0 0 1-44.714667 0 28.586667 28.586667 0 0 1 0-42.154667l31.488-29.667556z m-135.111111-164.124444h62.976c13.568 0 24.405333-10.183111 24.405333-22.556445 0-12.344889-10.837333-22.556444-24.405333-22.556444H102.599111c-13.539556 0-24.376889 10.211556-24.376889 22.556444 0 12.373333 10.808889 22.584889 24.376889 22.584889z m0 14.222222c-21.219556 0-38.599111-16.355556-38.599111-36.778667 0-20.394667 17.351111-36.778667 38.599111-36.778666h62.976c21.248 0 38.627556 16.384 38.627556 36.778666 0 20.423111-17.379556 36.807111-38.627556 36.807112H102.599111z m755.825778-14.222222h62.976c13.539556 0 24.376889-10.183111 24.376889-22.556445 0-12.344889-10.808889-22.556444-24.376889-22.556444h-62.976c-13.568 0-24.405333 10.211556-24.405333 22.556444 0 12.373333 10.837333 22.584889 24.405333 22.584889z m0 14.222222c-21.248 0-38.627556-16.355556-38.627556-36.778667 0-20.394667 17.379556-36.778667 38.627556-36.778666h62.976c21.219556 0 38.599111 16.384 38.599111 36.778666 0 20.423111-17.351111 36.807111-38.599111 36.807112h-62.976zM242.602667 335.644444a25.884444 25.884444 0 0 0 34.929777 0 21.475556 21.475556 0 0 0 0-31.800888L246.044444 274.147556a25.856 25.856 0 0 0-23.893333-5.973334 23.665778 23.665778 0 0 0-17.294222 16.099556 21.532444 21.532444 0 0 0 6.257778 21.646222L242.545778 335.644444zM191.146667 280.376889c3.640889-12.771556 14.136889-22.641778 27.477333-26.026667 13.255111-3.328 27.392 0.227556 37.148444 9.443556L287.288889 293.461333a35.697778 35.697778 0 0 1 0 52.508445c-15.075556 14.222222-39.367111 14.222222-54.471111 0l-31.488-29.696a35.754667 35.754667 0 0 1-10.154667-35.896889zM777.955556 840.106667c6.200889 5.831111 15.36 8.135111 23.893333 5.973333a23.665778 23.665778 0 0 0 17.294222-16.099556 21.532444 21.532444 0 0 0-6.257778-21.674666l-31.459555-29.667556a25.884444 25.884444 0 0 0-34.986667 0 21.475556 21.475556 0 0 0 0 31.772445l31.516445 29.696zM736.711111 768.284444c15.075556-14.222222 39.367111-14.222222 54.471111 0l31.488 29.667556c9.898667 9.329778 13.795556 23.04 10.154667 35.896889a37.859556 37.859556 0 0 1-27.477333 26.026667 40.078222 40.078222 0 0 1-37.148445-9.415112L736.711111 820.764444a35.697778 35.697778 0 0 1 0-52.48z m41.244445-494.136888l-31.488 29.667555a21.532444 21.532444 0 0 0-6.257778 21.674667 23.665778 23.665778 0 0 0 17.294222 16.099555 25.856 25.856 0 0 0 23.893333-5.973333l31.516445-29.696a21.475556 21.475556 0 0 0 0-31.772444 25.884444 25.884444 0 0 0-34.986667 0z m-9.756445-10.353778c15.075556-14.222222 39.367111-14.222222 54.471111 0a35.697778 35.697778 0 0 1 0 52.48l-31.488 29.696c-9.784889 9.187556-23.921778 12.771556-37.176889 9.415111a37.859556 37.859556 0 0 1-27.448889-26.026667 35.754667 35.754667 0 0 1 10.154667-35.896889l31.488-29.667555z m-525.624889 514.844444l-31.488 29.667556a21.475556 21.475556 0 0 0 0 31.800889 25.884444 25.884444 0 0 0 34.986667 0l31.459555-29.696a21.475556 21.475556 0 0 0 0-31.772445 25.884444 25.884444 0 0 0-34.958222 0zM287.288889 768.284444a35.697778 35.697778 0 0 1 0 52.48L255.800889 850.488889c-15.075556 14.222222-39.367111 14.222222-54.471111 0a35.697778 35.697778 0 0 1 0-52.508445l31.488-29.667555c15.075556-14.222222 39.395556-14.222222 54.471111 0z m186.112-595.712c0-20.423111 17.351111-36.807111 38.599111-36.807111 21.219556 0 38.599111 16.384 38.599111 36.807111v59.335112c0 20.423111-17.351111 36.807111-38.599111 36.807111-21.219556 0-38.599111-16.384-38.599111-36.807111V172.572444z" fill="#124D99" p-id="37709"></path><path d="M362.353778 604.956444l-22.840889-90.794666v98.389333c0 5.432889-1.223111 9.528889-3.669333 12.231111a12.344889 12.344889 0 0 1-9.671112 4.096 12.344889 12.344889 0 0 1-9.528888-4.039111c-2.446222-2.702222-3.697778-6.798222-3.697778-12.288V499.768889c0-6.229333 1.621333-10.439111 4.864-12.600889 3.242667-2.161778 7.623111-3.242667 13.141333-3.242667h8.931556c5.404444 0 9.301333 0.483556 11.719111 1.422223a9.841778 9.841778 0 0 1 5.404444 5.290666c1.137778 2.503111 2.503111 6.627556 3.982222 12.344889l20.707556 78.051556 20.707556-78.051556c1.479111-5.688889 2.844444-9.841778 3.982222-12.344889a9.841778 9.841778 0 0 1 5.404444-5.262222c2.417778-0.967111 6.343111-1.450667 11.719111-1.450667h8.931556c5.518222 0 9.898667 1.080889 13.141333 3.242667 3.214222 2.161778 4.835556 6.371556 4.835556 12.600889v112.782222c0 5.432889-1.194667 9.528889-3.640889 12.231111a12.458667 12.458667 0 0 1-9.756445 4.096 12.145778 12.145778 0 0 1-9.443555-4.096c-2.446222-2.702222-3.697778-6.798222-3.697778-12.231111v-98.417778l-22.840889 90.823111c-1.479111 5.888-2.702222 10.24-3.640889 12.970667a17.92 17.92 0 0 1-5.205333 7.537778 15.160889 15.160889 0 0 1-10.524444 3.413333 15.843556 15.843556 0 0 1-8.533334-2.190222 15.758222 15.758222 0 0 1-5.432889-5.603556 31.914667 31.914667 0 0 1-3.072-7.509333 981.731556 981.731556 0 0 1-2.275555-8.618667z m208.924444 5.347556l-6.826666-17.891556h-57.912889l-6.826667 18.289778c-2.645333 7.111111-4.920889 11.946667-6.798222 14.421334-1.877333 2.503111-4.949333 3.754667-9.244445 3.754666a13.539556 13.539556 0 0 1-9.614222-3.982222 12.231111 12.231111 0 0 1-4.181333-9.045333c0-1.962667 0.312889-3.982222 0.967111-6.030223 0.654222-2.076444 1.706667-4.949333 3.214222-8.647111l36.465778-92.558222 3.726222-9.585778c1.479111-3.697778 3.015111-6.826667 4.664889-9.272889a18.972444 18.972444 0 0 1 6.542222-5.973333 19.968 19.968 0 0 1 9.955556-2.275555 20.195556 20.195556 0 0 1 10.069333 2.275555 19.342222 19.342222 0 0 1 6.513778 5.859556c1.649778 2.417778 3.043556 4.977778 4.152889 7.736889 1.137778 2.759111 2.588444 6.428444 4.352 11.036444l37.233778 91.960889c2.901333 6.997333 4.352 12.088889 4.352 15.274667a12.629333 12.629333 0 0 1-4.124445 9.102222 13.568 13.568 0 0 1-9.955555 4.124444 11.946667 11.946667 0 0 1-9.927112-4.522666 30.435556 30.435556 0 0 1-3.555555-6.428445c-1.251556-2.872889-2.332444-5.404444-3.242667-7.623111z m-57.173333-39.566222h42.581333l-21.475555-58.823111-21.105778 58.823111z m103.936 27.989333l31.886222-46.563555-26.823111-41.415112a82.062222 82.062222 0 0 1-5.688889-10.353777 20.679111 20.679111 0 0 1-1.905778-8.305778 9.671111 9.671111 0 0 1 3.640889-7.338667 12.885333 12.885333 0 0 1 8.903111-3.271111c4.010667 0 7.139556 1.194667 9.386667 3.555556 2.247111 2.360889 5.319111 6.769778 9.272889 13.169777l21.390222 34.616889 22.869333-34.616889 4.807112-7.480888c1.308444-2.076444 2.588444-3.783111 3.84-5.148445a12.373333 12.373333 0 0 1 4.124444-3.072 12.885333 12.885333 0 0 1 5.290667-1.024c3.640889 0 6.599111 1.080889 8.903111 3.271111 2.275556 2.161778 3.441778 4.750222 3.441778 7.708445 0 4.352-2.474667 10.24-7.480889 17.720889l-28.103111 41.984 30.236444 46.563555c2.730667 4.096 4.721778 7.480889 5.944889 10.154667a18.375111 18.375111 0 0 1 1.848889 7.651555 12.088889 12.088889 0 0 1-6.314667 10.695111 13.937778 13.937778 0 0 1-6.826667 1.649778 13.141333 13.141333 0 0 1-11.463111-5.944889c-1.166222-1.678222-3.328-4.949333-6.513777-9.813333l-25.088-39.480889-26.624 40.675556c-2.076444 3.214222-3.555556 5.489778-4.437334 6.769777a25.799111 25.799111 0 0 1-3.128889 3.811556 13.624889 13.624889 0 0 1-10.325333 3.982222 12.288 12.288 0 0 1-8.704-3.214222c-2.304-2.133333-3.441778-5.262222-3.441778-9.329778 0-4.807111 2.360889-10.666667 7.082667-17.607111z" fill="#124D99" p-id="37710"></path></svg>