<svg t="1773309411375" class="icon" viewBox="0 0 1024 1024" version="1.1" xmlns="http://www.w3.org/2000/svg" p-id="42256" width="30" height="30"><path d="M518.683249 1008.39619C251.468011 1008.39619 33.014678 791.893333 33.014678 522.727619S251.468011 39.009524 518.683249 39.009524 1002.401345 257.462857 1002.401345 524.678095 785.898487 1008.39619 518.683249 1008.39619z m0-910.87238c-234.057143 0-427.154286 191.146667-427.154285 427.154285S282.67563 949.881905 518.683249 949.881905 945.837535 758.735238 945.837535 522.727619 752.740392 97.52381 518.683249 97.52381z" fill="#124D99" p-id="42257"></path><path d="M464.069916 651.459048h-58.514286c-21.455238 0-39.009524-17.554286-39.009524-39.009524v-62.415238c0-15.60381 5.851429-29.257143 17.554286-40.96 29.257143-29.257143 64.365714-48.761905 101.424762-56.56381 5.851429-3.900952 11.702857-7.801905 19.504762-13.653333 58.514286-39.009524 181.394286-122.88 440.807619-93.622857 9.752381 1.950476 17.554286 11.702857 17.554286 21.455238-1.950476 9.752381-9.752381 17.554286-21.455238 17.554286-245.76-27.306667-358.887619 50.712381-413.500953 89.721904-9.752381 7.801905-19.504762 13.653333-25.35619 17.554286-1.950476 0-5.851429 0-7.801905 1.950476-31.207619 5.851429-58.514286 19.504762-83.870476 44.860953-3.900952 3.900952-5.851429 7.801905-5.851429 13.653333V614.4h56.56381c11.702857 0 19.504762 7.801905 19.504762 19.504762s-7.801905 17.554286-17.554286 17.554286z" fill="#124D99" p-id="42258"></path><path d="M600.603249 704.121905c-48.761905 0-87.771429-37.059048-87.771428-83.870476s39.009524-83.870476 87.771428-83.870477 87.771429 37.059048 87.771429 83.870477c0 44.860952-39.009524 83.870476-87.771429 83.870476z m0-128.731429c-27.306667 0-48.761905 19.504762-48.761904 44.860953s21.455238 44.860952 48.761904 44.860952 48.761905-19.504762 48.761905-44.860952-21.455238-44.860952-48.761905-44.860953zM922.431821 651.459048h-193.097143c-11.702857 0-19.504762-7.801905-19.504762-19.504762s7.801905-19.504762 19.504762-19.504762h193.097143c11.702857 0 19.504762 7.801905 19.504762 19.504762s-7.801905 19.504762-19.504762 19.504762z" fill="#124D99" p-id="42259"></path></svg>