<svg t="1773309550667" class="icon" viewBox="0 0 1024 1024" version="1.1" xmlns="http://www.w3.org/2000/svg" p-id="52575" width="30" height="30"><path d="M806.165333 264.576l-50.282666-50.282667c-25.152-25.152-47.850667-2.453333-48.618667-3.2l-12.48 12.501334-44.949333-44.949334s-54.869333-54.869333-107.797334-1.941333L145.066667 573.696c-52.501333 52.48 1.92 107.776 1.92 107.776l192 191.978667s54.848 54.848 107.776 1.92L843.733333 478.421333c52.928-52.906667-1.92-107.776-1.92-107.776l-45.717333-45.717333 12.501333-12.501333s22.698667-22.698667-2.432-47.829334z m-18.453333 132.416s23.466667 23.466667-1.365333 48.298667l-372.693334 372.693333c-24.853333 24.853333-48.32 1.365333-48.32 1.365333l-164.266666-164.245333s-23.466667-23.466667 1.386666-48.298667l372.693334-372.693333c25.6-25.6 48.32-1.386667 48.32-1.386667l164.266666 164.266667z m-445.226667 278.826667l219.221334-116.522667-57.962667-44.714667 115.306667-115.306666-212.138667 113.706666 64.704 33.728-129.130667 129.130667z" fill="#124D99" p-id="52576"></path></svg>