<svg t="1773314115649" class="icon" viewBox="0 0 1024 1024" version="1.1" xmlns="http://www.w3.org/2000/svg" p-id="59889" width="30" height="30"><path d="M731.708 601.831c-30.567-17.696-67.569-35.394-90.094-41.828-24.132-8.043-53.090 48.265-53.090 48.265s-27.348 6.434-88.485-41.828-67.569-91.7-67.569-91.7 32.174-27.348 32.174-46.657-12.87-59.525-37.003-93.309c-24.132-35.394-127.095 0-96.527 123.879 11.263 46.657 37.003 96.527 123.879 172.142 86.874 74.004 168.924 85.266 220.405 75.615 49.872-9.653 88.485-86.874 56.308-104.571z" fill="#ffffff" p-id="59890"></path><path d="M527.392 69.319c-241.321 0-435.983 193.056-435.983 431.156 1.609 86.874 27.348 165.705 69.178 233.277 4.827 8.043-83.658 213.969-77.222 218.796 3.219 3.219 225.23-78.831 228.449-77.222 64.353 35.394 136.749 56.308 215.58 56.308 241.321 0 435.983-193.056 435.983-431.156s-194.663-431.156-435.983-431.156zM529.001 846.369c-69.178 0-133.531-20.914-188.23-54.7-8.043-4.827-136.749 49.872-139.964 48.265-3.219-3.219 48.265-133.531 45.045-136.749-41.828-56.308-65.962-125.486-65.962-201.099 0-189.836 156.052-344.283 349.109-344.283s349.109 154.447 349.109 344.283-156.052 344.283-349.109 344.283z" fill="#ffffff" p-id="59891"></path></svg>