<svg t="1773384335919" class="icon" viewBox="0 0 1024 1024" version="1.1" xmlns="http://www.w3.org/2000/svg" p-id="16240" width="30" height="30"><path d="M512 0A512 512 0 1 1 0 512 512 512 0 0 1 512 0z m71.373 380.57h-5.427c-48.692 18.944-121.805 10.803-170.548 29.747v13.568c70.4 0 51.456 43.315 37.888 94.771-16.23 62.26-48.742 143.36-54.17 200.346s29.8 78.54 65.025 78.54c48.742 0 89.344-48.742 111.001-75.827 5.428-5.427 46.08-48.742 21.658-54.17-21.658-5.12-43.315 81.255-83.917 65.025-2.713 0-2.713 0-5.427-2.714 10.803-121.856 59.546-230.4 83.917-349.286z m-21.658-178.74a59.597 59.597 0 1 0 59.597 59.597 60.109 60.109 0 0 0-59.597-59.597z" p-id="16241" fill="#124D99"></path></svg>