<svg t="1773309592536" class="icon" viewBox="0 0 1024 1024" version="1.1" xmlns="http://www.w3.org/2000/svg" p-id="54628" width="30" height="30"><path d="M107.505371 12.6976c7.562971 0 13.692343 6.582857 13.692343 14.730971v1.974858c-0.073143 29.959314-0.9216 389.968457 0 414.6176-0.555886 59.904 9.713371 71.8848 69.617372 69.310171l17.8176 0.014629 274.578285 0.014628 0.541258-485.419886c0-8.133486 6.144-14.730971 13.692342-14.730971h39.365486c7.562971 0 13.692343 6.582857 13.692343 14.730971l2.545371 485.419886 251.904-0.014628h126.932115l-20.48-485.917258c0-8.133486 6.114743-14.730971 13.677714-14.730971h39.365486c7.562971 0 13.706971 6.582857 13.706971 14.730971v971.819886c0 8.133486-6.144 14.730971-13.706971 14.730972h-39.350857c-7.5776 0-13.706971-6.597486-13.706972-14.730972V584.352914h-360.886857v415.407543c0 8.133486-6.129371 14.730971-13.692343 14.730972h-39.350857c-7.5776 0-13.706971-6.582857-13.706971-14.730972V584.352914l-359.687315 0.014629C71.050971 583.2704 55.837257 561.210514 54.418286 513.3312V27.428571c0-8.133486 6.144-14.730971 13.706971-14.730971h39.350857z m110.592 658.314971c41.354971 0 71.416686 3.042743 90.155886 9.142858 18.753829 6.100114 33.748114 16.954514 45.012114 32.548571s16.896 33.426286 16.896 53.496686c0 25.482971-8.528457 46.518857-25.6 63.122285-17.071543 16.603429-42.5984 27.062857-76.565942 31.392915 16.896 8.630857 30.837029 18.139429 41.837714 28.481828 11.000686 10.3424 25.834057 28.730514 44.485486 55.135086l47.250285 66.238171h-93.447314l-56.495543-73.874285c-20.0704-26.4192-33.792-43.051886-41.179428-49.927315-7.402057-6.875429-15.228343-11.585829-23.508115-14.1312-8.265143-2.545371-21.372343-3.818057-39.336228-3.818057H131.774171v141.750857H53.628343V671.012571h164.469028z m-20.6848 57.4464H131.759543v86.162286H189.586286c37.493029 0 60.898743-1.404343 70.217143-4.169143 9.333029-2.779429 16.632686-7.5776 21.9136-14.365257 5.280914-6.802286 7.928686-15.286857 7.928685-25.482971 0-11.424914-3.4816-20.655543-10.430171-27.677257-6.9632-7.021714-16.764343-11.4688-29.432686-13.312-6.026971-0.731429-23.478857-1.1264-52.370286-1.170286z" fill="#124D99" p-id="54629"></path></svg>