<svg t="1773314176299" class="icon" viewBox="0 0 1024 1024" version="1.1" xmlns="http://www.w3.org/2000/svg" p-id="64015" width="30" height="30"><path d="M639.268571 475.428571A215.04 215.04 0 0 0 731.428571 228.937143 228.571429 228.571429 0 0 0 512 73.142857a228.571429 228.571429 0 0 0-219.428571 155.794286A215.04 215.04 0 0 0 384.731429 475.428571 356.937143 356.937143 0 0 0 109.714286 804.571429c0 98.011429 201.508571 146.285714 402.285714 146.285714s402.285714-48.274286 402.285714-146.285714a357.302857 357.302857 0 0 0-275.017143-329.142858z m-77.165714 286.354286L512 808.96l-50.102857-47.908571L512 601.6zM340.114286 292.571429A168.594286 168.594286 0 0 1 512 128 168.594286 168.594286 0 0 1 684.617143 292.571429 168.594286 168.594286 0 0 1 512 457.142857a175.177143 175.177143 0 0 1-121.782857-48.274286A159.817143 159.817143 0 0 1 340.114286 292.571429zM512 896c-209.92 0-344.137143-54.857143-344.137143-91.428571a317.074286 317.074286 0 0 1 311.588572-292.571429L402.285714 761.782857a26.697143 26.697143 0 0 0 7.314286 27.428572l82.285714 78.262857a29.988571 29.988571 0 0 0 20.48 8.045714 28.525714 28.525714 0 0 0 20.114286-8.045714l82.285714-81.188572a25.965714 25.965714 0 0 0 7.314286-27.428571L544.914286 512a317.44 317.44 0 0 1 311.954285 292.571429c0 36.571429-134.217143 91.428571-344.868571 91.428571z" p-id="64016" fill="#ffffff"></path></svg>